<?xml version="1.0" encoding="utf-8"?>
<svg width="24px" height="24px" viewBox="0 0 24 24" version="1.1" xmlns:xlink="http://www.w3.org/1999/xlink" xmlns="http://www.w3.org/2000/svg">
  <defs>
    <path d="M24 0L24 0L24 24L0 24L0 0L24 0Z" id="path_1" />
    <clipPath id="clip_1">
      <use xlink:href="#path_1" clip-rule="evenodd" fill-rule="evenodd" />
    </clipPath>
  </defs>
  <g id="Frame" clip-path="url(#clip_1)">
    <path d="M24 0L24 0L24 24L0 24L0 0L24 0Z" id="Frame" fill="none" stroke="none" />
    <path d="M9 22L15 22C20 22 22 20 22 15L22 9C22 4 20 2 15 2L9 2C4 2 2 4 2 9L2 15C2 20 4 22 9 22L9 22Z" id="Shape" fill="none" stroke="#FFFFFF" stroke-width="2" stroke-linecap="round" stroke-linejoin="round" />
    <path d="M15.5 9.75C16.3284 9.75 17 9.07843 17 8.25C17 7.42157 16.3284 6.75 15.5 6.75C14.6716 6.75 14 7.42157 14 8.25C14 9.07843 14.6716 9.75 15.5 9.75L15.5 9.75Z" id="Shape" fill="none" stroke="#FFFFFF" stroke-width="2" stroke-linecap="round" stroke-linejoin="round" />
    <path d="M8.5 9.75C9.32843 9.75 10 9.07843 10 8.25C10 7.42157 9.32843 6.75 8.5 6.75C7.67157 6.75 7 7.42157 7 8.25C7 9.07843 7.67157 9.75 8.5 9.75L8.5 9.75Z" id="Shape" fill="none" stroke="#FFFFFF" stroke-width="2" stroke-linecap="round" stroke-linejoin="round" />
    <path d="M8.4 13.3L15.6 13.3C16.1 13.3 16.5 13.7 16.5 14.2C16.5 16.69 14.49 18.7 12 18.7C9.51 18.7 7.5 16.69 7.5 14.2C7.5 13.7 7.9 13.3 8.4 13.3L8.4 13.3Z" id="Shape" fill="none" stroke="#FFFFFF" stroke-width="2" stroke-linecap="round" stroke-linejoin="round" />
  </g>
</svg>