<?xml version="1.0" encoding="utf-8"?>
<svg width="24px" height="24px" viewBox="0 0 24 24" version="1.1" xmlns:xlink="http://www.w3.org/1999/xlink" xmlns="http://www.w3.org/2000/svg">
  <defs>
    <path d="M24 0L24 0L24 24L0 24L0 0L24 0Z" id="path_1" />
    <clipPath id="clip_1">
      <use xlink:href="#path_1" clip-rule="evenodd" fill-rule="evenodd" />
    </clipPath>
  </defs>
  <g id="Frame 3" clip-path="url(#clip_1)">
    <path d="M24 0L24 0L24 24L0 24L0 0L24 0Z" id="Frame-3" fill="none" stroke="none" />
    <g id="Group" transform="translate(9.17004 9.17004)">
      <path d="M0 5.65996L5.65996 0" id="Line" fill="none" fill-rule="evenodd" stroke="#FFFFFF" stroke-width="2" stroke-linecap="round" stroke-linejoin="round" />
    </g>
    <g id="Group" transform="translate(9.17004 9.17004)">
      <path d="M5.65996 5.65996L0 0" id="Line" fill="none" fill-rule="evenodd" stroke="#FFFFFF" stroke-width="2" stroke-linecap="round" stroke-linejoin="round" />
    </g>
    <path d="M9 22L15 22C20 22 22 20 22 15L22 9C22 4 20 2 15 2L9 2C4 2 2 4 2 9L2 15C2 20 4 22 9 22L9 22Z" id="Shape" fill="none" stroke="#FFFFFF" stroke-width="2" stroke-linecap="round" stroke-linejoin="round" />
  </g>
</svg>